<?xml version="1.0" standalone="no"?>
<!DOCTYPE svg PUBLIC "-//W3C//DTD SVG 1.1//EN" "http://www.w3.org/Graphics/SVG/1.1/DTD/svg11.dtd" >
<svg xmlns="http://www.w3.org/2000/svg" xmlns:xlink="http://www.w3.org/1999/xlink" version="1.1">
<metadata></metadata>
<defs>
<font id="mediolanum_sansitalic" horiz-adv-x="1094" >
<font-face units-per-em="2048" ascent="1638" descent="-410" />
<missing-glyph horiz-adv-x="543" />
<glyph horiz-adv-x="0" />
<glyph horiz-adv-x="682" />
<glyph unicode="&#xd;" horiz-adv-x="794" />
<glyph unicode=" "  horiz-adv-x="543" />
<glyph unicode="&#x09;" horiz-adv-x="543" />
<glyph unicode="&#xa0;" horiz-adv-x="543" />
<glyph unicode="!" horiz-adv-x="457" d="M303 426h-169l160 1019h207zM168 230q58 0 92.5 -42.5t23.5 -98.5q-7 -47 -47.5 -81.5t-86.5 -34.5q-58 0 -92.5 42.5t-23.5 98.5q7 47 47.5 81.5t86.5 34.5z" />
<glyph unicode="&#x22;" horiz-adv-x="641" d="M439 1472l-114 -377h-107l21 377h200zM755 1472l-113 -377h-110l21 377h202z" />
<glyph unicode="#" horiz-adv-x="1331" d="M1085 1017h212l-27 -164h-237l-89 -261h212l-30 -164h-236l-141 -428h-182l143 428h-205l-143 -428h-182l143 428h-209l29 164h237l86 261h-209l27 164h237l143 428h183l-144 -428h203l141 428h182zM649 853l-87 -261h203l88 261h-204z" />
<glyph unicode="$" horiz-adv-x="766" d="M428 847l152 -85q89 -50 122.5 -125t18.5 -157q-21 -114 -107.5 -183t-199.5 -90l-36 -207h-180l39 212q-133 31 -235 136l105 128q55 -60 123.5 -86t124.5 -26q62 0 116.5 37.5t67.5 103.5q15 88 -104 153l-116 63q-82 46 -127.5 120t-29.5 160q18 100 92 164.5 t167 83.5l36 212h178l-39 -223q96 -30 162 -102l-96 -121q-75 82 -159 82q-57 0 -102 -31.5t-57 -87.5q-15 -76 84 -131z" />
<glyph unicode="%" horiz-adv-x="1649" d="M548 1472q147 0 230.5 -114t54.5 -277q-27 -158 -140.5 -263.5t-251.5 -105.5q-148 0 -231.5 114.5t-54.5 279.5q27 156 141 261t252 105zM355 0h-212l1234 1445h211zM546 1313q-76 0 -137.5 -67t-78.5 -165q-15 -93 16.5 -151t97.5 -58q76 0 136.5 67t79.5 167 q15 91 -16.5 149t-97.5 58zM1290 733q149 0 232.5 -114.5t54.5 -277.5q-27 -158 -140 -263t-251 -105q-149 0 -232.5 114t-54.5 279q27 156 140.5 261.5t250.5 105.5zM1290 573q-76 0 -138.5 -67t-79.5 -165q-15 -93 16.5 -151t97.5 -58q78 0 138 67t78 167 q15 92 -15.5 149.5t-96.5 57.5z" />
<glyph unicode="&#x26;" horiz-adv-x="1067" d="M1054 275l-85 -129q-44 17 -122 66q-89 -120 -204 -179.5t-233 -59.5q-88 0 -166 36.5t-131 98t-76.5 150.5t-6.5 188q22 122 98.5 222.5t187.5 157.5q-53 44 -78 118.5t-10 163.5q27 149 151 256.5t267 107.5q124 0 244 -82l-100 -138q-59 47 -148 47q-82 0 -153 -64 t-86 -154q-17 -88 25.5 -145.5t113.5 -57.5q87 0 173 -36l-91 -141q-33 16 -82 16q-112 0 -202 -84.5t-112 -213.5q-20 -115 35 -194t149 -79q189 0 309 166q-59 52 -100 111l119 100q114 -155 314 -248z" />
<glyph unicode="'" horiz-adv-x="327" d="M439 1472l-114 -377h-107l21 377h200z" />
<glyph unicode="(" horiz-adv-x="618" d="M432 -259l-216 9q-52 74 -91.5 204t-55.5 311.5t20 378.5q31 181 109 365t161 309.5t160 199.5l236 -9q-177 -154 -301.5 -393t-169.5 -499q-28 -168 -25 -325t47.5 -303t125.5 -248z" />
<glyph unicode=")" horiz-adv-x="616" d="M234 1518l217 -9q51 -75 89.5 -204t55.5 -310.5t-18 -377.5q-24 -138 -75 -278.5t-112.5 -254t-124 -201.5t-118.5 -142l-237 9q176 154 301 394.5t170 499.5q28 168 24.5 325t-48 302t-124.5 247z" />
<glyph unicode="*" horiz-adv-x="744" d="M569 1136l136 -187l-150 -98l-82 216l-150 -216l-125 98l196 187l-221 43l82 161l191 -95l16 250h171l-73 -248l221 93l27 -161z" />
<glyph unicode="+" horiz-adv-x="1203" d="M621 75h-186l72 419h-382l30 177h382l75 417h189l-75 -417h382l-29 -177h-385z" />
<glyph unicode="," horiz-adv-x="509" d="M348 155l-243 -380h-128l146 380h225z" />
<glyph unicode="-" horiz-adv-x="866" d="M742 494h-617l30 177h619z" />
<glyph unicode="." horiz-adv-x="457" d="M168 230q58 0 92.5 -42.5t23.5 -98.5q-7 -48 -47 -82t-87 -34q-58 0 -92.5 42.5t-23.5 98.5q7 48 47 82t87 34z" />
<glyph unicode="/" horiz-adv-x="948" d="M182 0h-212l877 1445h211z" />
<glyph unicode="0" horiz-adv-x="1240" d="M778 1472q169 0 282.5 -105.5t152.5 -278t2 -378.5q-27 -150 -89 -284t-149 -234.5t-200.5 -159.5t-234.5 -59q-169 0 -282.5 105.5t-152.5 278.5t-2 380q25 149 87.5 283t149.5 234t201 159t235 59zM774 1281q-114 0 -213.5 -80t-163.5 -207.5t-92 -283.5 q-22 -111 -15 -210t35 -174t86.5 -118.5t139.5 -43.5q113 0 211 80t161.5 208.5t91.5 284.5q22 110 15.5 209t-33.5 173.5t-84.5 118t-138.5 43.5z" />
<glyph unicode="1" horiz-adv-x="500" d="M266 0h-198l178 1006q10 60 14.5 98.5t2.5 83t-13 84.5l276 209z" />
<glyph unicode="2" horiz-adv-x="903" d="M614 1472q115 0 198.5 -57t118 -149.5t16.5 -198.5q-14 -82 -76 -184t-179 -248l-364 -455h498l-32 -180h-853l601 742q92 115 142.5 196t61.5 147q16 84 -20.5 141.5t-115.5 56.5q-163 -3 -289 -227l-153 102q81 140 198 227t248 87z" />
<glyph unicode="3" horiz-adv-x="944" d="M942 1074q-15 -77 -66 -149.5t-127 -125.5q88 -62 126.5 -164t16.5 -219q-34 -191 -181 -317t-329 -126q-129 0 -233 71t-160 199l159 96q34 -89 99 -134.5t140 -45.5q108 0 193.5 82t108.5 203q19 115 -39 191.5t-179 76.5l18 164q94 0 161 62.5t83 153.5 q15 82 -27.5 138t-120.5 56q-59 0 -124 -42t-104 -104l-141 118q71 94 174 154t206 60q172 0 272.5 -117t73.5 -281z" />
<glyph unicode="4" horiz-adv-x="896" d="M860 360h-152l-64 -360h-200l66 360h-521l580 1085h202l-473 -908h244l27 155h198l-27 -155h152z" />
<glyph unicode="5" horiz-adv-x="960" d="M931 1265h-467l-98 -341q79 54 198 54q80 0 149 -35t117 -100.5t66.5 -159t-2.5 -210.5q-36 -211 -189 -355.5t-334 -144.5q-128 0 -231.5 60.5t-155.5 173.5l164 118q28 -81 87.5 -122t137.5 -41q117 0 204.5 93t114.5 246q24 131 -24 216.5t-147 85.5 q-60 0 -111.5 -20.5t-118.5 -70.5l-141 91l171 642h642z" />
<glyph unicode="6" horiz-adv-x="998" d="M576 935q119 0 208.5 -63.5t128 -177t13.5 -250.5q-35 -198 -181.5 -334.5t-325.5 -136.5q-125 0 -217 66t-131.5 180.5t-13.5 251.5q24 128 127 287l458 687h223l-364 -519q35 9 75 9zM426 162q105 0 189.5 89t108.5 220q24 122 -24 203t-142 81q-105 0 -189 -88.5 t-110 -222.5q-22 -121 25.5 -201.5t141.5 -80.5z" />
<glyph unicode="7" horiz-adv-x="921" d="M246 0h-216l739 1265h-630l29 180h924z" />
<glyph unicode="8" horiz-adv-x="926" d="M928 1065q-29 -172 -166 -282q73 -61 103.5 -156.5t10.5 -214.5q-23 -124 -96 -225t-178 -157.5t-220 -56.5q-185 0 -288 134.5t-67 331.5q20 117 84.5 210.5t159.5 149.5q-97 113 -68 293q29 159 150.5 269.5t265.5 110.5q159 0 249.5 -119t59.5 -288zM396 1067 q-17 -94 17.5 -147t100.5 -53q78 0 141.5 62t81.5 166q14 82 -21.5 137.5t-101.5 55.5q-75 0 -139 -65t-79 -156zM678 437q20 115 -28.5 185t-139.5 70q-101 0 -183 -79t-104 -203q-19 -108 28.5 -180.5t137.5 -72.5q102 0 185.5 81.5t103.5 198.5z" />
<glyph unicode="9" horiz-adv-x="998" d="M1022 974q-25 -129 -137 -303l-450 -671h-221l364 519q-35 -9 -75 -9q-182 0 -285.5 141.5t-67.5 349.5q35 198 182 334.5t326 136.5q125 0 217.5 -66t132.5 -180.5t14 -251.5zM346 974q-20 -122 30.5 -203.5t144.5 -81.5q106 0 192.5 89.5t110.5 222.5 q22 121 -27.5 201.5t-143.5 80.5q-106 0 -194.5 -89.5t-112.5 -219.5z" />
<glyph unicode=":" horiz-adv-x="548" d="M355 1029q57 0 92 -42.5t24 -99.5q-8 -49 -48 -82.5t-86 -33.5q-58 0 -92.5 42.5t-23.5 98.5q7 48 46.5 82.5t87.5 34.5zM214 230q58 0 92.5 -42.5t23.5 -98.5q-7 -48 -47 -82t-87 -34q-58 0 -92.5 42.5t-23.5 98.5q7 48 47 82t87 34z" />
<glyph unicode=";" horiz-adv-x="525" d="M371 1029q57 0 92 -42.5t24 -99.5q-8 -49 -48 -82.5t-86 -33.5q-60 0 -95 42t-24 99q8 48 48.5 82.5t88.5 34.5zM350 155l-243 -380h-130l144 380h229z" />
<glyph unicode="=" horiz-adv-x="1021" d="M935 705h-773l31 178h772zM860 282h-774l32 175h774z" />
<glyph unicode="?" horiz-adv-x="839" d="M558 1472q115 0 195.5 -55t112 -146.5t10.5 -200.5q-13 -80 -72.5 -162t-143.5 -146q-75 -59 -113.5 -120t-52.5 -135l-18 -81h-187l16 97q26 182 200 333q152 111 175 241q17 89 -22 140t-114 51q-73 0 -140 -52t-108 -130l-141 105q65 114 172.5 187.5t230.5 73.5z M332 230q57 0 92 -42t27 -99q-8 -47 -49.5 -81.5t-87.5 -34.5q-58 0 -92.5 42.5t-23.5 98.5q7 47 47.5 81.5t86.5 34.5z" />
<glyph unicode="@" horiz-adv-x="1852" d="M1124 1436q167 0 306.5 -57.5t237 -164t136.5 -271t3 -365.5q-30 -167 -112.5 -307.5t-195 -220.5t-227.5 -80q-84 0 -136 51.5t-48 124.5q-167 -173 -369 -173q-91 0 -163 45.5t-109.5 122t-45 176.5t30.5 209q45 133 133 247.5t205 185t234 70.5q106 0 181.5 -55 t102.5 -137l55 164h161l-234 -694q-60 -180 32 -180q44 0 94 36t96.5 97.5t85.5 154.5t58 197q27 162 2 285t-95.5 206t-177.5 125t-243 42q-121 0 -242.5 -43t-226.5 -120.5t-192 -179t-146.5 -225t-82.5 -251.5q-30 -169 -2 -303.5t98.5 -228.5t174 -144t225.5 -50 q91 0 191.5 30t172.5 79l96 -134q-210 -141 -462 -141q-127 0 -241.5 40.5t-205.5 118t-151.5 189.5t-79 254.5t10.5 314.5q34 195 139 373.5t249.5 306.5t322.5 204t354 76zM753 130q122 0 247.5 114.5t173.5 267.5q48 164 5.5 262t-148.5 98q-133 0 -255.5 -115.5 t-177.5 -280.5q-48 -142 -2.5 -244t157.5 -102z" />
<glyph unicode="A" horiz-adv-x="1210" d="M835 482h-453l-255 -482h-218l785 1445h155l273 -1445h-203zM806 664l-82 469l-246 -469h328z" />
<glyph unicode="B" horiz-adv-x="1053" d="M312 1445h375q176 0 276.5 -111t71.5 -278q-14 -73 -69 -145.5t-140 -118.5q101 -46 149 -144.5t29 -226.5q-31 -184 -182.5 -302.5t-361.5 -118.5h-403zM480 1263l-73 -410h178q87 0 160 66t90 160q15 85 -29.5 134.5t-138.5 49.5h-187zM378 676l-89 -494h187 q124 0 217 74t113 195q19 108 -42.5 166.5t-187.5 58.5h-198z" />
<glyph unicode="C" horiz-adv-x="1251" d="M878 1472q150 0 266 -62.5t187 -157.5l-127 -153q-63 87 -149 134.5t-181 47.5q-130 0 -250.5 -75.5t-204.5 -206.5t-112 -289q-27 -150 9 -275.5t124.5 -198t210.5 -72.5q121 0 232 58t189 142l95 -173q-107 -100 -247 -159t-278 -59q-111 0 -207.5 38.5t-166 107.5 t-116 164.5t-57.5 210t10 243.5q26 152 100 288.5t177 234t232.5 155t263.5 57.5z" />
<glyph unicode="D" horiz-adv-x="1260" d="M312 1445h307q155 0 283 -52.5t212.5 -146.5t118.5 -233t5 -303q-55 -316 -292 -513t-568 -197h-321zM480 1263l-191 -1081h109q240 0 416 151t221 404q42 241 -73.5 383.5t-360.5 142.5h-121z" />
<glyph unicode="E" horiz-adv-x="989" d="M1051 1263h-571l-73 -414h449l-32 -185h-449l-86 -482h571l-32 -182h-771l255 1445h771z" />
<glyph unicode="F" horiz-adv-x="930" d="M1013 1263h-535l-73 -414h428l-32 -182h-428l-120 -667h-196l255 1445h732z" />
<glyph unicode="G" horiz-adv-x="1340" d="M1324 687l-72 -434q-125 -135 -263.5 -207.5t-324.5 -72.5q-137 0 -254 59t-194 159.5t-108 243.5t-3 302q26 149 102 285t182.5 234.5t240.5 157t271 58.5q126 0 239.5 -53t195.5 -145l-123 -150q-135 157 -316 157q-136 0 -261.5 -75t-213 -206t-115.5 -290 q-27 -153 11.5 -278.5t131.5 -196.5t221 -71q117 0 220 45t172 126l43 243h-212l32 184h412z" />
<glyph unicode="H" horiz-adv-x="1351" d="M1117 0h-198l112 628h-665l-111 -628h-198l255 1445h198l-112 -633h665l111 633h198z" />
<glyph unicode="I" horiz-adv-x="491" d="M259 0h-204l254 1445h205z" />
<glyph unicode="J" horiz-adv-x="496" d="M519 1445l-225 -1277q-55 -315 -171 -477h-230q75 87 121 202t77 289l223 1263h205z" />
<glyph unicode="K" horiz-adv-x="1174" d="M680 821l385 -821h-207l-321 676l-196 -203l-84 -473h-200l255 1445h200l-118 -671l644 671h245z" />
<glyph unicode="L" horiz-adv-x="914" d="M289 182h551l-34 -182h-749l255 1445h200z" />
<glyph unicode="M" horiz-adv-x="1622" d="M1454 0h-196l121 1067l-573 -676l-344 674l-232 -1065h-205l330 1445h123l366 -746l624 746h134z" />
<glyph unicode="N" horiz-adv-x="1372" d="M437 1445l571 -1035l184 1035h198l-254 -1445h-126l-569 1035l-184 -1035h-200l255 1445h125z" />
<glyph unicode="O" horiz-adv-x="1444" d="M881 1472q187 0 324.5 -102.5t195 -277.5t21.5 -382q-35 -201 -150 -370t-281.5 -268t-346.5 -99q-186 0 -323.5 103t-195 278.5t-20.5 382.5q26 150 100.5 285.5t177.5 234t233.5 157t264.5 58.5zM876 1281q-134 0 -256 -78.5t-204 -209t-109 -283.5q-26 -148 7 -272 t122 -199t217 -75q133 0 254.5 79t203.5 209.5t109 284.5q26 148 -7.5 272t-122 198t-214.5 74z" />
<glyph unicode="P" horiz-adv-x="1019" d="M312 1445h362q205 0 322 -120.5t85 -302.5q-31 -178 -182.5 -289.5t-356.5 -111.5h-176l-109 -621h-200zM480 1263l-82 -457h164q125 0 211 66.5t105 176.5q18 102 -43 158t-180 56h-175z" />
<glyph unicode="Q" horiz-adv-x="1458" d="M1422 710q-25 -144 -94 -275t-170 -232q66 -46 148 -82l-100 -146q-108 49 -189 114q-181 -116 -373 -116q-186 0 -323.5 103t-195 278.5t-20.5 382.5q26 150 100.5 285.5t177.5 234t233.5 157t264.5 58.5q187 0 324.5 -102.5t195 -277.5t21.5 -382zM307 710 q-26 -148 7 -272t122 -199t217 -75q117 0 228 61q-70 93 -105 180l166 84q38 -87 82 -150q155 166 196 398q26 148 -7.5 272t-122 198t-214.5 74q-134 0 -256 -78.5t-204 -209t-109 -283.5z" />
<glyph unicode="R" horiz-adv-x="1085" d="M312 1445h357q219 0 337 -116t86 -303q-24 -130 -125.5 -230t-242.5 -138l252 -658h-205l-243 633h-162l-111 -633h-198zM478 1263l-80 -448h164q144 0 232 64t107 172q18 103 -50 157.5t-200 54.5h-173z" />
<glyph unicode="S" horiz-adv-x="1001" d="M671 1472q89 0 170.5 -44t141.5 -129l-130 -125q-82 107 -191 107q-86 0 -144.5 -53.5t-73.5 -126.5q-11 -59 14 -108.5t97 -100.5l153 -107q136 -92 183 -194.5t24 -228.5q-21 -117 -94 -207t-173.5 -136t-210.5 -46q-133 0 -253 83.5t-179 223.5l168 95 q97 -211 280 -211q88 0 164 61.5t93 156.5q27 140 -112 237l-166 107q-103 70 -157.5 172t-33.5 226q19 105 84.5 186t156 121.5t189.5 40.5z" />
<glyph unicode="T" horiz-adv-x="946" d="M1083 1263h-378l-223 -1263h-198l223 1263h-377l32 182h955z" />
<glyph unicode="U" horiz-adv-x="1324" d="M1352 1445l-160 -887q-49 -279 -211.5 -432t-395.5 -153q-255 0 -365.5 163.5t-60.5 441.5l150 867h201l-157 -883q-34 -196 26.5 -297t212.5 -101q167 0 270.5 109t136.5 300l152 872h201z" />
<glyph unicode="V" horiz-adv-x="1212" d="M598 0h-154l-278 1445h205l200 -1115l590 1115h225z" />
<glyph unicode="W" horiz-adv-x="1749" d="M1923 1445l-756 -1445h-157l-111 619l-330 -619h-157l-246 1445h203l179 -1115l440 851l143 -851l569 1115h223z" />
<glyph unicode="X" horiz-adv-x="1178" d="M744 728l339 -728h-216l-262 560l-455 -560h-236l605 744l-326 701h217l248 -533l432 533h237z" />
<glyph unicode="Y" horiz-adv-x="1049" d="M646 617l-111 -617h-194l112 617l-291 828h202l209 -630l431 630h220z" />
<glyph unicode="Z" horiz-adv-x="1033" d="M296 182h651l-35 -182h-971l880 1263h-625l32 182h942z" />
<glyph unicode="_" horiz-adv-x="1067" d="M819 -198h-817l28 152h817z" />
<glyph unicode="`" horiz-adv-x="714" d="M678 1161h-143l-214 266h237z" />
<glyph unicode="a" d="M899 0h-184l27 132q-63 -74 -146.5 -116.5t-176.5 -42.5q-139 0 -229.5 75.5t-120.5 197t-5 268.5q26 140 94 255.5t178.5 187.5t243.5 72q100 0 173.5 -46.5t111.5 -122.5l27 141h184zM605 860q-127 0 -226.5 -103t-128.5 -270q-29 -159 27.5 -252.5t175.5 -93.5 q130 0 230 106t127 267q26 152 -30.5 249t-174.5 97z" />
<glyph unicode="b" horiz-adv-x="1112" d="M478 1468l-107 -599q62 74 145.5 117t175.5 43q140 0 230.5 -76t120 -197.5t4.5 -268.5q-24 -140 -92.5 -255t-179.5 -187t-243 -72q-101 0 -172.5 45.5t-113.5 122.5l-28 -141h-184l260 1468h184zM660 860q-129 0 -229.5 -106.5t-127.5 -266.5q-27 -151 28.5 -248.5 t173.5 -97.5q129 0 226.5 102.5t126.5 270.5q29 158 -26.5 252t-171.5 94z" />
<glyph unicode="c" horiz-adv-x="928" d="M624 1029q85 0 165.5 -34.5t141.5 -102.5l-103 -127q-86 95 -202 95q-131 0 -242.5 -115t-137.5 -263q-25 -135 37.5 -238t187.5 -103q159 0 280 121l77 -137q-64 -64 -163 -108t-201 -44q-100 0 -184 39t-139.5 107.5t-77.5 169t-2 218.5q21 118 80 218t137 165.5 t168 102t178 36.5z" />
<glyph unicode="d" horiz-adv-x="1110" d="M1158 1468l-259 -1468h-184l27 132q-63 -74 -146.5 -116.5t-176.5 -42.5q-139 0 -229.5 75.5t-120.5 197t-5 268.5q26 140 94 255.5t178.5 187.5t243.5 72q100 0 173.5 -46.5t111.5 -122.5l109 608h184zM605 860q-127 0 -224 -102.5t-128 -270.5q-29 -159 26 -252.5 t174 -93.5q129 0 227.5 106t125.5 267q27 152 -28 249t-173 97z" />
<glyph unicode="e" horiz-adv-x="1010" d="M596 1029q211 0 313 -143.5t58 -393.5q-5 -13 -9 -44h-719q-18 -140 49 -224.5t188 -84.5q85 0 163.5 42t127.5 115l130 -89q-81 -110 -195 -172t-229 -62q-89 0 -170.5 36t-143.5 102t-89.5 171.5t-5.5 231.5q17 98 59 183t97 145t120 103t130.5 63.5t125.5 20.5z M601 865q-105 0 -196 -72.5t-127 -182.5h528q14 106 -43 180.5t-162 74.5z" />
<glyph unicode="f" horiz-adv-x="521" d="M719 1490l-32 -172q-98 0 -169 -71.5t-92 -181.5l-12 -64h214l-30 -161h-211l-148 -840h-184l148 840h-151l28 161h152l14 78q31 183 160 297t313 114z" />
<glyph unicode="g" d="M1076 1001l-175 -987l-4 -32q-39 -201 -188.5 -332.5t-342.5 -131.5q-141 0 -246.5 69t-151.5 188l155 77q31 -82 96.5 -124t149.5 -42q115 0 215 81t128 217l7 30l23 118q-63 -74 -146.5 -116.5t-176.5 -42.5q-139 0 -229.5 75.5t-120.5 197t-5 268.5q26 140 94 255.5 t178.5 187.5t243.5 72q100 0 173.5 -46.5t111.5 -122.5l27 141h184zM453 141q130 0 230 106t127 267q26 152 -30.5 249t-174.5 97q-127 0 -226.5 -103t-128.5 -270q-29 -159 27.5 -252.5t175.5 -93.5z" />
<glyph unicode="h" horiz-adv-x="1035" d="M478 1468l-107 -583q56 67 132 105.5t150 38.5q56 0 100 -9.5t83 -30t64 -57t40 -87.5t14.5 -123.5t-16.5 -163.5l-101 -558h-184l100 573q26 154 -10.5 220.5t-128.5 66.5q-97 0 -184 -80.5t-111 -221.5l-101 -558h-184l260 1468h184z" />
<glyph unicode="i" horiz-adv-x="393" d="M353 1461q57 0 91.5 -41.5t26.5 -99.5q-11 -49 -50 -82.5t-86 -33.5q-58 0 -93.5 42.5t-25.5 100.5q8 48 48.5 81t88.5 33zM203 0h-189l177 1001h189z" />
<glyph unicode="j" horiz-adv-x="393" d="M353 1461q57 0 91.5 -41.5t26.5 -99.5q-11 -49 -50 -82.5t-86 -33.5q-58 0 -93.5 42.5t-25.5 100.5q8 48 48.5 81t88.5 33zM380 1001l-168 -958q-52 -283 -196 -498h-216q163 199 225 514l168 942h187z" />
<glyph unicode="k" horiz-adv-x="905" d="M535 601l284 -601h-191l-225 478l-114 -107l-66 -371h-189l260 1468h188l-147 -833l389 366h236z" />
<glyph unicode="l" horiz-adv-x="427" d="M221 0h-189l259 1468h189z" />
<glyph unicode="m" horiz-adv-x="1590" d="M1238 1029q343 0 259 -471l-100 -558h-184l105 594q25 144 -15.5 205t-119.5 61q-89 0 -174.5 -81t-109.5 -221l-100 -558h-185l105 594q25 144 -17.5 205t-121.5 61q-90 0 -173 -80.5t-107 -221.5l-100 -558h-184l177 1001h185l-25 -116q57 67 131.5 105.5t152.5 38.5 q91 0 160.5 -44t99.5 -141q73 93 162.5 139t178.5 46z" />
<glyph unicode="n" horiz-adv-x="1012" d="M639 1029q36 0 69 -5t67.5 -19t62 -36.5t50 -59t34.5 -84.5t12 -116.5t-15 -150.5l-98 -558h-184l103 594q10 78 3.5 129.5t-34 82t-58 42.5t-66.5 12q-92 0 -176.5 -80.5t-108.5 -221.5l-100 -558h-184l177 1001h185l-25 -116q58 68 133.5 106t152.5 38z" />
<glyph unicode="o" horiz-adv-x="1103" d="M633 1029q145 0 248 -74t144 -197.5t15 -270.5q-19 -105 -70.5 -199t-125.5 -163.5t-171 -110.5t-200 -41q-145 0 -248 74t-144.5 197t-16.5 270q19 105 70.5 199.5t125.5 164t171.5 110.5t201.5 41zM630 860q-149 0 -248.5 -106t-128.5 -267q-25 -150 30.5 -248 t192.5 -98q149 0 248.5 106.5t126.5 266.5q27 150 -28.5 248t-192.5 98z" />
<glyph unicode="p" d="M378 1001l-25 -132q64 74 147 117t174 43q140 0 230.5 -76t120 -197.5t4.5 -268.5q-24 -140 -92.5 -255t-179.5 -187t-243 -72q-195 0 -286 168l-107 -596h-185l257 1456h185zM487 141q127 0 225.5 103t127.5 270q29 159 -26 252.5t-172 93.5q-130 0 -230.5 -106 t-127.5 -267q-27 -151 29.5 -248.5t173.5 -97.5z" />
<glyph unicode="q" d="M1076 1001l-257 -1456h-184l107 587q-136 -159 -323 -159q-139 0 -229.5 75.5t-120.5 197t-5 268.5q26 140 94 255.5t178.5 187.5t243.5 72q100 0 172.5 -46.5t112.5 -122.5l27 141h184zM453 141q129 0 229.5 106.5t127.5 266.5q26 152 -29.5 249t-175.5 97 q-128 0 -224.5 -102t-127.5 -271q-29 -159 26.5 -252.5t173.5 -93.5z" />
<glyph unicode="r" horiz-adv-x="703" d="M626 1029q45 0 91.5 -16t76.5 -41l-111 -148q-40 36 -103 36q-80 0 -168.5 -85t-115.5 -233l-96 -542h-184l177 1001h185l-25 -116q54 67 126 105.5t147 38.5z" />
<glyph unicode="s" horiz-adv-x="766" d="M441 1029q72 0 146.5 -30.5t131.5 -90.5l-98 -121q-75 82 -157 82q-59 0 -104 -31t-57 -87q-7 -42 14 -73t70 -59l152 -84q90 -51 124 -124.5t20 -157.5q-13 -71 -54.5 -127t-97.5 -88t-116.5 -48.5t-118.5 -16.5q-83 0 -171.5 34.5t-163.5 113.5l105 127 q55 -60 123.5 -85.5t124.5 -25.5q63 0 117 37.5t67 103.5q8 48 -17.5 84t-84.5 68l-116 66q-83 43 -128 117t-31 161q15 81 69.5 141t120 87t130.5 27z" />
<glyph unicode="t" horiz-adv-x="577" d="M628 840h-200l-148 -840h-184l147 840h-172l27 161h173l59 330h184l-59 -330h203z" />
<glyph unicode="u" horiz-adv-x="1012" d="M821 0h-184l25 116q-57 -68 -133.5 -105.5t-153.5 -37.5q-36 0 -68.5 5t-67.5 19t-62.5 36.5t-50 59t-34 84.5t-11.5 116.5t15 150.5l97 557h185l-103 -594q-11 -78 -4 -129.5t34 -82t57.5 -42.5t67.5 -12q92 0 176.5 81t108.5 222l100 557h184z" />
<glyph unicode="v" horiz-adv-x="869" d="M421 0h-146l-207 1001h187l132 -730l396 730h200z" />
<glyph unicode="w" horiz-adv-x="1394" d="M1509 1001l-551 -1001h-143l-110 551l-295 -551h-146l-196 1001h187l120 -732l410 760l137 -760l386 732h201z" />
<glyph unicode="x" horiz-adv-x="851" d="M526 498l234 -498h-193l-164 348l-285 -348h-209l419 510l-230 491h191l162 -343l282 343h202z" />
<glyph unicode="y" horiz-adv-x="839" d="M152 -455h-188l291 535l-178 921h185l118 -692l373 692h194z" />
<glyph unicode="z" horiz-adv-x="805" d="M257 162h462l-30 -162h-748l610 840h-433l30 161h721z" />
<glyph unicode="&#xa2;" horiz-adv-x="928" d="M664 1088q-131 0 -241.5 -115t-135.5 -263q-25 -135 37.5 -238t187.5 -103q162 0 278 120l77 -139q-52 -52 -131.5 -92t-164.5 -53l-36 -205h-178l37 214q-160 39 -243.5 179.5t-48.5 341.5q36 204 172 341.5t302 170.5l38 214h180l-41 -214q132 -30 219 -127l-105 -128 q-82 96 -203 96z" />
<glyph unicode="&#xa3;" horiz-adv-x="942" d="M466 537q-14 -82 -73.5 -179t-153.5 -181l587 3l-32 -180h-840l28 157l-2 23q84 43 150 111t102 137t46 134q6 24 6 62h-218l30 168h159l-14 36q-41 76 -52.5 143.5t2.5 134.5q27 145 150 255.5t289 110.5q108 0 193.5 -56.5t132.5 -166.5l-146 -111q-59 148 -182 148 q-96 0 -162.5 -67.5t-80.5 -146.5q-20 -110 45 -264l9 -16h294l-32 -168h-225q0 -27 -10 -87z" />
<glyph unicode="&#xa5;" horiz-adv-x="1049" d="M876 947h157l-29 -169h-244l-114 -161l-2 -7h232l-29 -171h-233l-79 -439h-194l80 439h-234l29 171h235l2 7l-57 161h-248l29 169h160l-175 498h202l209 -630l431 630h220z" />
<glyph unicode="&#xa9;" horiz-adv-x="848" d="M573 1472q173 0 274 -118t72 -282q-15 -98 -79 -185q-45 40 -71 85q35 55 46 127q20 111 -51.5 193t-185.5 82q-132 0 -231 -86t-122 -212q-19 -114 52.5 -198t184.5 -84q145 0 243 98q26 -36 66 -73q-59 -56 -139.5 -89.5t-167.5 -33.5q-112 0 -197.5 55t-124.5 147.5 t-21 200.5q29 159 159 266t293 107zM553 1290q86 0 132 -66l-52 -61q-33 36 -78 36q-49 0 -91 -36.5t-50 -86.5q-8 -44 16.5 -75.5t67.5 -31.5q61 0 114 50q26 -46 43 -68q-26 -28 -71.5 -49t-91.5 -21q-84 0 -137.5 62.5t-38.5 151.5q15 84 85 139.5t152 55.5z" />
<glyph unicode="&#xad;" horiz-adv-x="866" d="M742 494h-617l30 177h619z" />
<glyph unicode="&#xae;" horiz-adv-x="928" d="M619 1472q173 0 274 -118t72 -282q-15 -96 -80 -185q-46 42 -70 82q35 59 45 130q20 110 -51.5 192.5t-184.5 82.5q-132 0 -231 -86t-122 -212q-19 -114 52 -198t184 -84q98 0 176 46q-62 80 -107 175h-57l-25 -139h-94l76 419h138q74 0 115.5 -44.5t30.5 -105.5 q-13 -69 -96 -119q31 -61 64 -106t89 -101q-59 -56 -139.5 -89.5t-167.5 -33.5q-112 0 -197.5 55t-125 147.5t-21.5 200.5q29 159 159 266t294 107zM530 1088h59q32 0 55.5 21.5t29.5 48.5q4 22 -8.5 39.5t-44.5 17.5h-68z" />
<glyph unicode="&#xb0;" horiz-adv-x="532" d="M426 1472q109 0 172 -75.5t44 -185.5q-17 -100 -97 -168.5t-179 -68.5q-112 0 -175.5 76.5t-44.5 187.5q19 99 99.5 166.5t180.5 67.5zM432 1359q-57 0 -103.5 -43.5t-57.5 -104.5q-10 -53 15 -88t71 -35q57 0 103.5 44t58.5 106q8 51 -16.5 86t-70.5 35z" />
<glyph unicode="&#xb4;" horiz-adv-x="714" d="M740 1427l-312 -266h-166l218 266h260z" />
<glyph unicode="&#xc0;" horiz-adv-x="1210" d="M726 1604l-214 267h237l120 -267h-143zM835 482h-453l-255 -482h-218l785 1445h155l273 -1445h-203zM806 664l-82 469l-246 -469h328z" />
<glyph unicode="&#xc1;" horiz-adv-x="1210" d="M892 1604h-166l218 267h260zM849 1445l273 -1445h-203l-84 482h-453l-255 -482h-218l785 1445h155zM806 664l-82 469l-246 -469h328z" />
<glyph unicode="&#xc8;" horiz-adv-x="989" d="M796 1604h-143l-214 267h237zM1051 1263h-571l-73 -414h449l-32 -185h-449l-86 -482h571l-32 -182h-771l255 1445h771z" />
<glyph unicode="&#xc9;" horiz-adv-x="989" d="M1131 1871l-312 -267h-166l219 267h259zM1051 1263h-571l-73 -414h449l-32 -185h-449l-86 -482h571l-32 -182h-771l255 1445h771z" />
<glyph unicode="&#xcc;" horiz-adv-x="491" d="M510 1604h-144l-214 267h237zM259 0h-204l254 1445h205z" />
<glyph unicode="&#xcd;" horiz-adv-x="491" d="M844 1871l-312 -267h-166l219 267h259zM259 0h-204l254 1445h205z" />
<glyph unicode="&#xd2;" horiz-adv-x="1444" d="M978 1604h-143l-214 267h237zM881 1472q187 0 324.5 -102.5t195 -277.5t21.5 -382q-35 -201 -150 -370t-281.5 -268t-346.5 -99q-186 0 -323.5 103t-195 278.5t-20.5 382.5q26 150 100.5 285.5t177.5 234t233.5 157t264.5 58.5zM876 1281q-134 0 -256 -78.5t-204 -209 t-109 -283.5q-26 -148 7 -272t122 -199t217 -75q133 0 254.5 79t203.5 209.5t109 284.5q26 148 -7.5 272t-122 198t-214.5 74z" />
<glyph unicode="&#xd3;" horiz-adv-x="1444" d="M1311 1871l-312 -267h-166l218 267h260zM881 1472q187 0 324.5 -102.5t195 -277.5t21.5 -382q-35 -201 -150 -370t-281.5 -268t-346.5 -99q-186 0 -323.5 103t-195 278.5t-20.5 382.5q26 150 100.5 285.5t177.5 234t233.5 157t264.5 58.5zM876 1281q-134 0 -256 -78.5 t-204 -209t-109 -283.5q-26 -148 7 -272t122 -199t217 -75q133 0 254.5 79t203.5 209.5t109 284.5q26 148 -7.5 272t-122 198t-214.5 74z" />
<glyph unicode="&#xd9;" horiz-adv-x="1324" d="M928 1604h-143l-214 267h237zM1352 1445l-160 -887q-49 -279 -211.5 -432t-395.5 -153q-255 0 -365.5 163.5t-60.5 441.5l150 867h201l-157 -883q-34 -196 26.5 -297t212.5 -101q167 0 270.5 109t136.5 300l152 872h201z" />
<glyph unicode="&#xda;" horiz-adv-x="1324" d="M1263 1871l-312 -267h-166l219 267h259zM1352 1445l-160 -887q-49 -279 -211.5 -432t-395.5 -153q-255 0 -365.5 163.5t-60.5 441.5l150 867h201l-157 -883q-34 -196 26.5 -297t212.5 -101q167 0 270.5 109t136.5 300l152 872h201z" />
<glyph unicode="&#xe0;" d="M683 1161h-144l-214 266h237zM899 0h-184l27 132q-63 -74 -146.5 -116.5t-176.5 -42.5q-139 0 -229.5 75.5t-120.5 197t-5 268.5q26 140 94 255.5t178.5 187.5t243.5 72q100 0 173.5 -46.5t111.5 -122.5l27 141h184zM605 860q-127 0 -226.5 -103t-128.5 -270 q-29 -159 27.5 -252.5t175.5 -93.5q130 0 230 106t127 267q26 152 -30.5 249t-174.5 97z" />
<glyph unicode="&#xe1;" d="M1017 1427l-312 -266h-166l219 266h259zM899 0h-184l27 132q-63 -74 -146.5 -116.5t-176.5 -42.5q-139 0 -229.5 75.5t-120.5 197t-5 268.5q26 140 94 255.5t178.5 187.5t243.5 72q100 0 173.5 -46.5t111.5 -122.5l27 141h184zM605 860q-127 0 -226.5 -103t-128.5 -270 q-29 -159 27.5 -252.5t175.5 -93.5q130 0 230 106t127 267q26 152 -30.5 249t-174.5 97z" />
<glyph unicode="&#xe8;" horiz-adv-x="1010" d="M696 1161h-143l-214 266h237zM596 1029q211 0 313 -143.5t58 -393.5q-5 -13 -9 -44h-719q-18 -140 49 -224.5t188 -84.5q85 0 163.5 42t127.5 115l130 -89q-81 -110 -195 -172t-229 -62q-89 0 -170.5 36t-143.5 102t-89.5 171.5t-5.5 231.5q17 98 59 183t97 145t120 103 t130.5 63.5t125.5 20.5zM601 865q-105 0 -196 -72.5t-127 -182.5h528q14 106 -43 180.5t-162 74.5z" />
<glyph unicode="&#xe9;" horiz-adv-x="1010" d="M1031 1427l-312 -266h-166l218 266h260zM596 1029q211 0 313 -143.5t58 -393.5q-5 -13 -9 -44h-719q-18 -140 49 -224.5t188 -84.5q85 0 163.5 42t127.5 115l130 -89q-81 -110 -195 -172t-229 -62q-89 0 -170.5 36t-143.5 102t-89.5 171.5t-5.5 231.5q17 98 59 183 t97 145t120 103t130.5 63.5t125.5 20.5zM601 865q-105 0 -196 -72.5t-127 -182.5h528q14 106 -43 180.5t-162 74.5z" />
<glyph unicode="&#xec;" horiz-adv-x="393" d="M385 1161h-144l-214 266h237zM203 0h-189l177 1001h189z" />
<glyph unicode="&#xed;" horiz-adv-x="393" d="M719 1427l-312 -266h-166l219 266h259zM203 0h-189l177 1001h189z" />
<glyph unicode="&#xf2;" horiz-adv-x="1103" d="M733 1161h-144l-214 266h237zM633 1029q145 0 248 -74t144 -197.5t15 -270.5q-19 -105 -70.5 -199t-125.5 -163.5t-171 -110.5t-200 -41q-145 0 -248 74t-144.5 197t-16.5 270q19 105 70.5 199.5t125.5 164t171.5 110.5t201.5 41zM630 860q-149 0 -248.5 -106 t-128.5 -267q-25 -150 30.5 -248t192.5 -98q149 0 248.5 106.5t126.5 266.5q27 150 -28.5 248t-192.5 98z" />
<glyph unicode="&#xf3;" horiz-adv-x="1103" d="M1067 1427l-312 -266h-166l219 266h259zM633 1029q145 0 248 -74t144 -197.5t15 -270.5q-19 -105 -70.5 -199t-125.5 -163.5t-171 -110.5t-200 -41q-145 0 -248 74t-144.5 197t-16.5 270q19 105 70.5 199.5t125.5 164t171.5 110.5t201.5 41zM630 860q-149 0 -248.5 -106 t-128.5 -267q-25 -150 30.5 -248t192.5 -98q149 0 248.5 106.5t126.5 266.5q27 150 -28.5 248t-192.5 98z" />
<glyph unicode="&#xf9;" horiz-adv-x="1012" d="M694 1161h-143l-214 266h236zM821 0h-184l25 116q-57 -68 -133.5 -105.5t-153.5 -37.5q-36 0 -68.5 5t-67.5 19t-62.5 36.5t-50 59t-34 84.5t-11.5 116.5t15 150.5l97 557h185l-103 -594q-11 -78 -4 -129.5t34 -82t57.5 -42.5t67.5 -12q92 0 176.5 81t108.5 222l100 557 h184z" />
<glyph unicode="&#xfa;" horiz-adv-x="1012" d="M1029 1427l-312 -266h-166l218 266h260zM821 0h-184l25 116q-57 -68 -133.5 -105.5t-153.5 -37.5q-36 0 -68.5 5t-67.5 19t-62.5 36.5t-50 59t-34 84.5t-11.5 116.5t15 150.5l97 557h185l-103 -594q-11 -78 -4 -129.5t34 -82t57.5 -42.5t67.5 -12q92 0 176.5 81 t108.5 222l100 557h184z" />
<glyph unicode="&#x2000;" horiz-adv-x="935" />
<glyph unicode="&#x2001;" horiz-adv-x="1871" />
<glyph unicode="&#x2002;" horiz-adv-x="935" />
<glyph unicode="&#x2003;" horiz-adv-x="1871" />
<glyph unicode="&#x2004;" horiz-adv-x="623" />
<glyph unicode="&#x2005;" horiz-adv-x="467" />
<glyph unicode="&#x2006;" horiz-adv-x="311" />
<glyph unicode="&#x2007;" horiz-adv-x="311" />
<glyph unicode="&#x2008;" horiz-adv-x="233" />
<glyph unicode="&#x2009;" horiz-adv-x="374" />
<glyph unicode="&#x200a;" horiz-adv-x="103" />
<glyph unicode="&#x2010;" horiz-adv-x="866" d="M742 494h-617l30 177h619z" />
<glyph unicode="&#x2011;" horiz-adv-x="866" d="M742 494h-617l30 177h619z" />
<glyph unicode="&#x2012;" horiz-adv-x="866" d="M742 494h-617l30 177h619z" />
<glyph unicode="&#x2013;" horiz-adv-x="1241" d="M1099 494h-974l47 177h977z" />
<glyph unicode="&#x2014;" horiz-adv-x="2265" d="M2072 494h-1947l95 177h1953z" />
<glyph unicode="&#x2018;" horiz-adv-x="523" d="M214 1095l243 377h130l-143 -377h-230z" />
<glyph unicode="&#x2019;" horiz-adv-x="509" d="M580 1472l-241 -377h-130l144 377h227z" />
<glyph unicode="&#x201a;" horiz-adv-x="509" d="M348 155l-243 -380h-128l146 380h225z" />
<glyph unicode="&#x201c;" horiz-adv-x="857" d="M214 1095l243 377h130l-143 -377h-230zM548 1095l244 377h130l-144 -377h-230z" />
<glyph unicode="&#x201d;" horiz-adv-x="844" d="M583 1472l-244 -377h-130l144 377h230zM917 1472l-243 -377h-130l143 377h230z" />
<glyph unicode="&#x201e;" horiz-adv-x="846" d="M350 155l-243 -378h-130l146 378h227zM685 155l-244 -378h-129l145 378h228z" />
<glyph unicode="&#x202f;" horiz-adv-x="374" />
<glyph unicode="&#x205f;" horiz-adv-x="467" />
<glyph unicode="&#x20ac;" horiz-adv-x="1338" d="M1038 1472q108 0 193.5 -32t158.5 -104l-86 -171q-108 121 -271 121q-132 0 -268 -87t-221 -241h655l-86 -168h-637q-12 -44 -19 -80q-9 -54 -9 -84h583l-87 -169h-482q23 -95 80.5 -164t129 -101.5t149.5 -32.5q211 0 365 137l56 -180q-101 -78 -200 -110.5t-227 -32.5 q-138 0 -255.5 56.5t-198.5 167.5t-104 260h-209l29 169h173q3 48 14 111l11 53h-161l29 168h185q102 238 299 376t411 138z" />
<glyph unicode="&#x25fc;" horiz-adv-x="1001" d="M0 1001h1001v-1001h-1001v1001z" />
</font>
</defs>
</svg>
